HIERARCHY
ROOT Hips
{
 OFFSET 0.000000 0.000000 0.000000
 CHANNELS 6 Xposition Yposition Zposition Yrotation Xrotation Zrotation
 JOINT Chest
 {
  OFFSET 0.000000 9.585900 0.002600
  CHANNELS 3 Yrotation Xrotation Zrotation
  JOINT Chest2
  {
   OFFSET 0.000000 9.601200 -0.005300
   CHANNELS 3 Yrotation Xrotation Zrotation
   JOINT Chest3
   {
    OFFSET 0.000000 9.561800 0.000000
    CHANNELS 3 Yrotation Xrotation Zrotation
    JOINT Chest4
    {
     OFFSET 0.000000 9.552100 0.000000
     CHANNELS 3 Yrotation Xrotation Zrotation
     JOINT Neck
     {
      OFFSET 0.000000 14.453000 0.000000
      CHANNELS 3 Yrotation Xrotation Zrotation
      JOINT Head
      {
       OFFSET 0.000000 8.936500 -0.011300
       CHANNELS 3 Yrotation Xrotation Zrotation
       End Site
       {
        OFFSET 0.000000 17.073600 -0.006000
       }
      }
     }
     JOINT RightCollar
     {
      OFFSET -2.921100 9.558500 0.000000
      CHANNELS 3 Yrotation Xrotation Zrotation
      JOINT RightShoulder
      {
       OFFSET -13.519700 0.000000 0.000000
       CHANNELS 3 Yrotation Xrotation Zrotation
       JOINT RightElbow
       {
        OFFSET 0.000000 -29.696600 0.000000
        CHANNELS 3 Yrotation Xrotation Zrotation
        JOINT RightWrist
        {
         OFFSET 0.000000 -24.004700 0.000000
         CHANNELS 3 Yrotation Xrotation Zrotation
         End Site
         {
          OFFSET 0.000000 -17.728500 0.000000
         }
        }
       }
      }
     }
     JOINT LeftCollar
     {
      OFFSET 2.921100 9.558500 0.000000
      CHANNELS 3 Yrotation Xrotation Zrotation
      JOINT LeftShoulder
      {
       OFFSET 13.519700 0.000000 0.000000
       CHANNELS 3 Yrotation Xrotation Zrotation
       JOINT LeftElbow
       {
        OFFSET 0.000000 -29.696600 0.000000
        CHANNELS 3 Yrotation Xrotation Zrotation
        JOINT LeftWrist
        {
         OFFSET 0.000000 -24.004700 0.000000
         CHANNELS 3 Yrotation Xrotation Zrotation
         End Site
         {
          OFFSET 0.000000 -17.728500 0.000000
         }
        }
       }
      }
     }
    }
   }
  }
 }
 JOINT RightHip
 {
  OFFSET -7.771700 -0.012900 -0.001300
  CHANNELS 3 Yrotation Xrotation Zrotation
  JOINT RightKnee
  {
   OFFSET 0.000000 -40.869800 0.001200
   CHANNELS 3 Yrotation Xrotation Zrotation
   JOINT RightAnkle
   {
    OFFSET 0.000000 -39.717900 0.002100
    CHANNELS 3 Yrotation Xrotation Zrotation
    JOINT RightToe
    {
     OFFSET 0.000000 -4.965400 11.033500
     CHANNELS 3 Yrotation Xrotation Zrotation
     End Site
     {
      OFFSET 0.000000 -1.423100 5.872300
     }
    }
   }
  }
 }
 JOINT LeftHip
 {
  OFFSET 7.771700 -0.012900 -0.001300
  CHANNELS 3 Yrotation Xrotation Zrotation
  JOINT LeftKnee
  {
   OFFSET 0.000000 -40.869800 0.001200
   CHANNELS 3 Yrotation Xrotation Zrotation
   JOINT LeftAnkle
   {
    OFFSET 0.000000 -39.717900 0.002100
    CHANNELS 3 Yrotation Xrotation Zrotation
    JOINT LeftToe
    {
     OFFSET 0.000000 -4.965400 11.033500
     CHANNELS 3 Yrotation Xrotation Zrotation
     End Site
     {
      OFFSET 0.000000 -1.423100 5.872300
     }
    }
   }
  }
 }
}
MOTION
Frames: 7
Frame Time: 0.008333
0.000000 85.388000 0.000000 0.000000 -5.767877 0.000000 0.000000 11.653817 0.000000 0.000000 -5.885947 0.000000 0.000000 -0.000000 0.000000 0.000000 -0.000000 0.000000 0.000000 12.528835 0.000000 0.000000 0.711642 0.000000 0.000000 -0.000000 0.000000 0.000000 0.000000 -90.000000 0.000000 -2.309062 0.000000 0.000000 2.309062 0.000000 0.000000 -0.000000 0.000000 0.000000 -0.000000 90.000000 0.000000 -2.309062 0.000000 0.000000 2.309062 0.000000 0.000000 8.520406 0.000000 0.000000 1.905762 0.000000 -0.000000 -4.658285 0.000000 0.000000 -0.000000 0.000000 0.000000 8.520406 0.000000 0.000000 1.905762 0.000000 -0.000000 -4.658285 0.000000 0.000000 -0.000000 0.000000
-8.318598 58.129636 38.689457 167.213064 -48.890489 1.817885 1.182861 24.414500 2.142220 0.150903 3.855519 0.191465 0.243051 6.179106 0.319840 0.993308 20.522897 1.173716 -2.068047 15.354002 -0.692819 -3.594668 -7.278598 -0.585280 7.716460 0.720884 -0.739201 39.495243 -46.749610 -20.880304 39.332343 -5.545518 -2.541772 8.528282 -4.349799 -43.599711 -9.405392 -3.245101 -2.706762 -40.125792 -37.682868 11.064568 -30.778856 -7.979608 19.097837 -26.693374 -5.165840 32.483832 14.941616 -23.935837 2.853165 -10.131431 68.516135 -3.737179 2.292845 3.747233 2.385256 -0.028846 0.130946 -0.005932 -6.976200 -24.710790 -0.665309 31.372234 68.475343 25.986150 -22.270659 2.293088 -2.222414 -0.082643 -0.683490 -0.037084
-8.320971 58.129609 38.691091 167.212652 -48.894808 1.823119 1.171010 24.416828 2.143631 0.149268 3.856164 0.192784 0.246018 6.180516 0.314548 0.983687 20.523699 1.188502 -2.089091 15.294750 -0.695021 -3.649526 -7.391104 -0.568632 7.719081 0.723702 -0.749963 39.479706 -46.756005 -20.865742 39.351381 -5.549442 -2.548097 8.529732 -4.346656 -43.605203 -9.396951 -3.245099 -2.708668 -40.115275 -37.694790 11.055259 -30.778353 -7.976174 19.092751 -26.696346 -5.162665 32.504480 14.946894 -23.929702 2.843680 -10.125921 68.515090 -3.728229 2.293179 3.749054 2.387608 -0.027092 0.130697 -0.009004 -6.978672 -24.705726 -0.668813 31.357289 68.470371 25.966052 -22.270175 2.299840 -2.224182 -0.081387 -0.684161 -0.036406
-8.323055 58.129697 38.692947 167.210153 -48.901446 1.826564 1.162150 24.415154 2.155230 0.151762 3.862818 0.186174 0.245635 6.182987 0.316907 0.983050 20.526622 1.196238 -2.119287 15.232688 -0.692985 -3.708720 -7.502211 -0.550386 7.707480 0.722772 -0.756826 39.466168 -46.761819 -20.845670 39.371291 -5.550282 -2.557584 8.524215 -4.345850 -43.606331 -9.420441 -3.237231 -2.686824 -40.071770 -37.717236 11.045465 -30.780155 -7.988787 19.082767 -26.691016 -5.169405 32.512423 14.950762 -23.921574 2.841030 -10.124477 68.511876 -3.726822 2.293781 3.751246 2.391436 -0.027825 0.131096 -0.010642 -6.977939 -24.698601 -0.669676 31.351884 68.464177 25.961915 -22.290667 2.304498 -2.230234 -0.086296 -0.685469 -0.036476
-8.325601 58.130265 38.694418 167.197714 -48.913023 1.839341 1.166437 24.424183 2.157573 0.149489 3.861443 0.188676 0.245128 6.185227 0.319193 0.981931 20.529430 1.203943 -2.149797 15.174285 -0.689434 -3.770522 -7.608951 -0.531751 7.693664 0.724931 -0.750190 39.463036 -46.761038 -20.843142 39.356361 -5.589731 -2.580655 8.524126 -4.327195 -43.595937 -9.422193 -3.238741 -2.701243 -40.078650 -37.709309 11.059523 -30.770260 -7.991431 19.081481 -26.687806 -5.181627 32.517593 14.961848 -23.908457 2.836753 -10.120813 68.509880 -3.722811 2.294116 3.752878 2.395442 -0.027569 0.131337 -0.011731 -6.973099 -24.682808 -0.673817 31.352277 68.455421 25.960591 -22.309489 2.298843 -2.230302 -0.100135 -0.678669 -0.042027
-8.326754 58.130211 38.696669 167.185344 -48.921325 1.841552 1.177098 24.431843 2.167754 0.148274 3.860142 0.197439 0.244623 6.186538 0.321801 0.981615 20.528741 1.227226 -2.176210 15.146424 -0.715236 -3.845895 -7.734227 -0.494932 7.660215 0.718543 -0.724806 39.491566 -46.729650 -20.862662 39.348308 -5.611032 -2.600457 8.544447 -4.311022 -43.580083 -9.435282 -3.232938 -2.713494 -40.069333 -37.715719 11.071757 -30.757379 -7.998440 19.077310 -26.686426 -5.198428 32.523629 14.972878 -23.900150 2.834943 -10.114101 68.504825 -3.702305 2.297814 3.757071 2.390502 -0.027354 0.131372 -0.011639 -6.977483 -24.669728 -0.667964 31.372969 68.445894 25.974410 -22.288282 2.291491 -2.236210 -0.087798 -0.669135 -0.038303
-8.328859 58.129672 38.699020 167.175110 -48.927087 1.846270 1.179053 24.432931 2.174000 0.148103 3.860813 0.199083 0.244422 6.187543 0.324392 0.982186 20.526810 1.240829 -2.214026 15.083857 -0.709934 -3.897048 -7.811610 -0.482955 7.645566 0.716687 -0.719127 39.478086 -46.727637 -20.846438 39.347945 -5.615314 -2.617485 8.554578 -4.306180 -43.568967 -9.462690 -3.228430 -2.691140 -40.042968 -37.726289 11.056923 -30.731527 -8.009186 19.081442 -26.687592 -5.207215 32.530874 14.980303 -23.894078 2.832895 -10.111273 68.501262 -3.694837 2.299759 3.758437 2.392465 -0.027530 0.132624 -0.013668 -6.974542 -24.661735 -0.667595 31.393373 68.435869 25.993585 -22.284968 2.290243 -2.240359 -0.083998 -0.665134 -0.037184
